<?xml version="1.0" encoding="UTF-8"?>
<svg xmlns="http://www.w3.org/2000/svg" xmlns:xlink="http://www.w3.org/1999/xlink" viewBox="0 0 150 150" width="150px" height="150px">
<g id="surface111445747">
<path style="fill-rule:nonzero;fill:rgb(27.843139%,70.980394%,100%);fill-opacity:0;stroke-width:10;stroke-linecap:butt;stroke-linejoin:round;stroke:rgb(27.843139%,70.980394%,100%);stroke-opacity:1;stroke-miterlimit:10;" d="M 245.76 128 C 245.76 193.206667 193.206667 245.76 128 245.76 C 62.793333 245.76 10.24 193.206667 10.24 128 C 10.24 62.793333 62.793333 10.24 128 10.24 C 193.206667 10.24 245.76 62.793333 245.76 128 Z M 245.76 128 " transform="matrix(0.585938,0,0,0.585938,0,0)"/>
<path style=" stroke:none;fill-rule:nonzero;fill:rgb(100%,100%,100%);fill-opacity:1;" d="M 75 6 C 36.792969 6 6 36.792969 6 75 C 6 113.207031 36.792969 144 75 144 C 113.207031 144 144 113.207031 144 75 C 144 36.792969 113.207031 6 75 6 Z M 75 12 C 109.992188 12 138 40.007812 138 75 C 138 109.992188 109.992188 138 75 138 C 40.007812 138 12 109.992188 12 75 C 12 40.007812 40.007812 12 75 12 Z M 75 33 C 70.03125 33 66 37.03125 66 42 C 66 46.96875 70.03125 51 75 51 C 79.96875 51 84 46.96875 84 42 C 84 37.03125 79.96875 33 75 33 Z M 63 63 L 63 69 L 69 69 L 69 108 L 63 108 L 63 114 L 87 114 L 87 108 L 81 108 L 81 63 Z M 63 63 "/>
</g>
</svg>
