<?xml version="1.0" encoding="iso-8859-1"?>
<!DOCTYPE svg PUBLIC "-//W3C//DTD SVG 1.1//EN" "http://www.w3.org/Graphics/SVG/1.1/DTD/svg11.dtd">
<svg version="1.1" id="Capa_1" xmlns="http://www.w3.org/2000/svg" xmlns:xlink="http://www.w3.org/1999/xlink" x="0px" y="0px"
	 width="31.334px" height="31.334px" viewBox="0 0 31.334 31.334" style="enable-background:new 0 0 31.334 31.334;"
	 xml:space="preserve">
<g>
	<path style="fill:#DFF6FF" d="M24.647,15.667c0,1.104-0.896,2-2,2h-9.132l2.552,2.553c0.781,0.78,0.781,2.048,0,2.827
		c-0.392,0.393-0.901,0.587-1.414,0.587c-0.512,0-1.023-0.194-1.414-0.587l-7.381-7.381l7.379-7.379
		c0.781-0.781,2.047-0.781,2.828,0c0.781,0.781,0.781,2.047,0,2.828l-2.551,2.552h9.135C23.752,13.667,24.647,14.562,24.647,15.667z
		 M31.333,15.667c0,8.64-7.027,15.667-15.666,15.667c-8.64,0-15.666-7.027-15.666-15.667C0.001,7.028,7.027,0,15.667,0
		C24.306,0,31.333,7.028,31.333,15.667z M27.333,15.667C27.333,9.234,22.101,4,15.667,4C9.234,4,4.001,9.233,4.001,15.667
		c0,6.435,5.233,11.667,11.666,11.667C22.101,27.334,27.333,22.102,27.333,15.667z"/>
</g>
<g>
</g>
<g>
</g>
<g>
</g>
<g>
</g>
<g>
</g>
<g>
</g>
<g>
</g>
<g>
</g>
<g>
</g>
<g>
</g>
<g>
</g>
<g>
</g>
<g>
</g>
<g>
</g>
<g>
</g>
</svg>
