<svg xmlns="http://www.w3.org/2000/svg" xmlns:xlink="http://www.w3.org/1999/xlink" width="449" zoomAndPan="magnify" viewBox="0 0 336.75 74.999997" height="100" preserveAspectRatio="xMidYMid meet" version="1.0"><defs><g/><clipPath id="4688ddb501"><path d="M 103.023438 2.867188 L 118 2.867188 L 118 32.84375 L 103.023438 32.84375 Z M 103.023438 2.867188 " clip-rule="nonzero"/></clipPath><clipPath id="446469d40f"><path d="M 119 9 L 128 9 L 128 32.84375 L 119 32.84375 Z M 119 9 " clip-rule="nonzero"/></clipPath><clipPath id="f76cdbfb5f"><path d="M 113 26 L 117 26 L 117 32.84375 L 113 32.84375 Z M 113 26 " clip-rule="nonzero"/></clipPath><clipPath id="06230b496e"><path d="M 118 2.867188 L 133 2.867188 L 133 32.84375 L 118 32.84375 Z M 118 2.867188 " clip-rule="nonzero"/></clipPath><clipPath id="8d231471e7"><path d="M 116 2.867188 L 120 2.867188 L 120 32.84375 L 116 32.84375 Z M 116 2.867188 " clip-rule="nonzero"/></clipPath></defs><path fill="#5ce1e6" d="M 121.46875 12.957031 C 121.46875 12.175781 120.835938 11.546875 120.058594 11.546875 C 119.277344 11.546875 118.648438 12.175781 118.648438 12.957031 C 118.648438 13.679688 119.191406 14.273438 119.894531 14.355469 L 119.894531 20.207031 L 121.519531 21.835938 L 121.519531 26.523438 L 121.875 26.171875 L 121.875 21.6875 L 120.246094 20.0625 L 120.246094 14.355469 C 120.9375 14.261719 121.46875 13.671875 121.46875 12.957031 " fill-opacity="1" fill-rule="nonzero"/><path fill="#5ce1e6" d="M 112.734375 25.886719 L 112.734375 25.390625 L 110.089844 22.746094 L 110.089844 17.386719 C 110.785156 17.296875 111.320312 16.707031 111.320312 15.988281 C 111.320312 15.210938 110.6875 14.578125 109.90625 14.578125 C 109.128906 14.578125 108.496094 15.210938 108.496094 15.988281 C 108.496094 16.710938 109.039062 17.304688 109.738281 17.390625 L 109.738281 22.890625 L 112.734375 25.886719 " fill-opacity="1" fill-rule="nonzero"/><g clip-path="url(#4688ddb501)"><path fill="#5ce1e6" d="M 115.925781 9.6875 C 115.148438 9.6875 114.515625 10.320312 114.515625 11.101562 C 114.515625 11.820312 115.054688 12.410156 115.75 12.5 L 115.75 19.640625 L 113.175781 22.21875 L 113.175781 30.066406 C 108.316406 28.144531 104.878906 23.40625 104.878906 17.867188 C 104.878906 10.863281 110.367188 5.140625 117.28125 4.765625 L 117.28125 2.90625 C 109.34375 3.28125 103.023438 9.835938 103.023438 17.867188 C 103.023438 24.449219 107.269531 30.039062 113.175781 32.046875 C 113.25 32.074219 113.328125 32.097656 113.402344 32.121094 C 113.414062 32.125 113.429688 32.132812 113.441406 32.136719 C 113.46875 32.144531 113.5 32.152344 113.527344 32.164062 L 113.527344 22.363281 L 116.101562 19.785156 L 116.101562 12.5 C 116.800781 12.410156 117.339844 11.820312 117.339844 11.101562 C 117.339844 10.320312 116.707031 9.6875 115.925781 9.6875 " fill-opacity="1" fill-rule="nonzero"/></g><g clip-path="url(#446469d40f)"><path fill="#5ce1e6" d="M 126.273438 11.972656 C 126.96875 11.882812 127.503906 11.289062 127.503906 10.574219 C 127.503906 9.792969 126.871094 9.160156 126.09375 9.160156 C 125.3125 9.160156 124.683594 9.792969 124.683594 10.574219 C 124.683594 11.292969 125.222656 11.886719 125.921875 11.972656 L 125.921875 22.746094 L 119.050781 29.617188 L 119.050781 32.804688 C 119.167969 32.796875 119.285156 32.789062 119.402344 32.777344 L 119.402344 29.761719 L 126.273438 22.890625 L 126.273438 11.972656 " fill-opacity="1" fill-rule="nonzero"/></g><g clip-path="url(#f76cdbfb5f)"><path fill="#5ce1e6" d="M 113.96875 27.121094 L 116.609375 29.761719 L 116.609375 32.777344 C 116.726562 32.789062 116.84375 32.796875 116.960938 32.804688 L 116.960938 29.617188 L 113.96875 26.621094 L 113.96875 27.121094 " fill-opacity="1" fill-rule="nonzero"/></g><g clip-path="url(#06230b496e)"><path fill="#5ce1e6" d="M 132.976562 17.867188 C 132.976562 9.835938 126.660156 3.285156 118.722656 2.90625 L 118.722656 4.765625 C 125.632812 5.140625 131.121094 10.863281 131.121094 17.867188 C 131.121094 23.761719 127.226562 28.75 121.875 30.402344 L 121.875 27.914062 L 121.519531 28.269531 L 121.519531 32.425781 C 121.570312 32.414062 121.617188 32.402344 121.664062 32.390625 C 121.71875 32.375 121.769531 32.363281 121.824219 32.347656 C 121.839844 32.34375 121.855469 32.339844 121.875 32.335938 C 128.265625 30.628906 132.976562 24.796875 132.976562 17.867188 " fill-opacity="1" fill-rule="nonzero"/></g><g clip-path="url(#8d231471e7)"><path fill="#5ce1e6" d="M 119.414062 0.132812 C 119.414062 -0.644531 118.78125 -1.277344 118 -1.277344 C 117.222656 -1.277344 116.589844 -0.644531 116.589844 0.132812 C 116.589844 0.855469 117.128906 1.445312 117.824219 1.535156 L 117.824219 32.839844 C 117.882812 32.839844 117.941406 32.84375 118 32.84375 C 118.058594 32.84375 118.117188 32.839844 118.175781 32.839844 L 118.175781 1.535156 C 118.875 1.445312 119.414062 0.855469 119.414062 0.132812 " fill-opacity="1" fill-rule="nonzero"/></g><g fill="#ffffff" fill-opacity="1"><g transform="translate(15.551768, 60.383152)"><g><path d="M 0.691406 -21.355469 L 6.402344 -21.355469 L 6.402344 -0.0703125 L 8.824219 -0.0703125 L 8.824219 -21.355469 L 14.535156 -21.355469 L 14.535156 -23.601562 L 0.691406 -23.601562 Z M 0.691406 -21.355469 "/></g></g></g><g fill="#ffffff" fill-opacity="1"><g transform="translate(32.544105, 60.383152)"><g><path d="M 16.578125 0 L 16.578125 -2.25 L 5.019531 -2.25 L 5.019531 -10.625 L 16.230469 -10.625 L 16.230469 -12.910156 L 5.019531 -12.910156 L 5.019531 -21.285156 L 16.578125 -21.285156 L 16.578125 -23.535156 L 2.59375 -23.535156 L 2.59375 0 Z M 16.578125 0 "/></g></g></g><g fill="#ffffff" fill-opacity="1"><g transform="translate(53.481639, 60.383152)"><g><path d="M 24.191406 -7.199219 L 21.527344 -7.199219 C 20.695312 -5.675781 19.554688 -4.429688 18.101562 -3.53125 C 16.648438 -2.59375 15.019531 -2.144531 13.289062 -2.144531 C 10.695312 -2.144531 8.480469 -3.082031 6.644531 -5.019531 C 4.84375 -6.851562 3.980469 -9.101562 3.980469 -11.734375 C 3.980469 -14.363281 4.84375 -16.613281 6.644531 -18.480469 C 7.476562 -19.347656 8.480469 -20.039062 9.621094 -20.558594 C 10.730469 -21.078125 11.835938 -21.355469 12.945312 -21.355469 C 14.015625 -21.355469 14.949219 -21.214844 15.78125 -20.972656 C 18.308594 -20.210938 20.210938 -18.6875 21.492188 -16.371094 L 24.15625 -16.371094 C 23.257812 -18.585938 21.839844 -20.382812 19.867188 -21.769531 C 17.859375 -23.152344 15.679688 -23.84375 13.289062 -23.84375 C 10.003906 -23.84375 7.234375 -22.632812 4.949219 -20.246094 C 3.875 -19.140625 3.046875 -17.824219 2.457031 -16.371094 C 1.835938 -14.917969 1.558594 -13.359375 1.558594 -11.734375 C 1.558594 -8.410156 2.664062 -5.605469 4.949219 -3.253906 C 7.234375 -0.832031 10.003906 0.347656 13.289062 0.347656 C 15.679688 0.347656 17.859375 -0.347656 19.898438 -1.730469 C 21.871094 -3.113281 23.292969 -4.914062 24.191406 -7.199219 Z M 24.191406 -7.199219 "/></g></g></g><g fill="#ffffff" fill-opacity="1"><g transform="translate(80.475408, 60.383152)"><g><path d="M 5.019531 0 L 5.019531 -10.519531 L 15.710938 -10.519531 L 15.710938 0 L 18.136719 0 L 18.136719 -23.535156 L 15.710938 -23.535156 L 15.710938 -12.945312 L 5.019531 -12.945312 L 5.019531 -23.535156 L 2.59375 -23.535156 L 2.59375 0 Z M 5.019531 0 "/></g></g></g><g fill="#ffffff" fill-opacity="1"><g transform="translate(102.970251, 60.383152)"><g/></g></g><g fill="#ffffff" fill-opacity="1"><g transform="translate(114.079394, 60.383152)"><g><path d="M 5.019531 0 L 5.019531 -23.535156 L 2.59375 -23.535156 L 2.59375 0 Z M 5.019531 0 "/></g></g></g><g fill="#ffffff" fill-opacity="1"><g transform="translate(123.458174, 60.383152)"><g><path d="M 5.019531 -17.339844 L 18.238281 1.453125 L 18.238281 -23.535156 L 15.816406 -23.535156 L 15.816406 -6.230469 L 2.59375 -25.023438 L 2.59375 0 L 5.019531 0 Z M 5.019531 -17.339844 "/></g></g></g><g fill="#ffffff" fill-opacity="1"><g transform="translate(146.05685, 60.383152)"><g><path d="M 5.019531 -17.339844 L 18.238281 1.453125 L 18.238281 -23.535156 L 15.816406 -23.535156 L 15.816406 -6.230469 L 2.59375 -25.023438 L 2.59375 0 L 5.019531 0 Z M 5.019531 -17.339844 "/></g></g></g><g fill="#ffffff" fill-opacity="1"><g transform="translate(168.655526, 60.383152)"><g><path d="M 23.328125 -11.835938 C 23.328125 -9.136719 22.359375 -6.851562 20.488281 -4.984375 C 18.585938 -3.082031 16.300781 -2.144531 13.636719 -2.144531 C 10.972656 -2.144531 8.6875 -3.082031 6.816406 -4.984375 C 4.914062 -6.851562 3.980469 -9.136719 3.980469 -11.835938 C 3.980469 -14.464844 4.914062 -16.75 6.816406 -18.652344 C 8.6875 -20.523438 10.972656 -21.492188 13.636719 -21.492188 C 16.300781 -21.492188 18.585938 -20.523438 20.488281 -18.652344 C 22.359375 -16.75 23.328125 -14.464844 23.328125 -11.835938 Z M 25.75 -11.835938 C 25.75 -13.496094 25.402344 -15.054688 24.78125 -16.542969 C 24.15625 -17.996094 23.292969 -19.277344 22.183594 -20.382812 C 21.078125 -21.457031 19.796875 -22.324219 18.34375 -22.945312 C 16.855469 -23.570312 15.296875 -23.914062 13.636719 -23.914062 C 11.976562 -23.914062 10.382812 -23.570312 8.929688 -22.945312 C 7.476562 -22.324219 6.195312 -21.457031 5.085938 -20.382812 C 3.980469 -19.277344 3.113281 -17.996094 2.492188 -16.542969 C 1.867188 -15.054688 1.558594 -13.496094 1.558594 -11.835938 C 1.558594 -10.175781 1.867188 -8.582031 2.492188 -7.128906 C 3.113281 -5.640625 3.980469 -4.359375 5.085938 -3.253906 C 6.195312 -2.144531 7.476562 -1.28125 8.929688 -0.65625 C 10.382812 -0.0351562 11.976562 0.277344 13.636719 0.277344 C 15.296875 0.277344 16.855469 -0.0351562 18.34375 -0.65625 C 19.796875 -1.28125 21.078125 -2.144531 22.183594 -3.253906 C 23.292969 -4.359375 24.15625 -5.640625 24.78125 -7.128906 C 25.402344 -8.582031 25.75 -10.175781 25.75 -11.835938 Z M 25.75 -11.835938 "/></g></g></g><g fill="#ffffff" fill-opacity="1"><g transform="translate(197.725717, 60.383152)"><g><path d="M 11.039062 1.417969 L 21.699219 -23.535156 L 19.070312 -23.535156 L 11.039062 -4.570312 L 2.976562 -23.535156 L 0.347656 -23.535156 Z M 11.039062 1.417969 "/></g></g></g><g fill="#ffffff" fill-opacity="1"><g transform="translate(221.53563, 60.383152)"><g><path d="M 6.402344 -8.652344 L 10.695312 -19.484375 L 14.949219 -8.652344 Z M 21.007812 0 L 10.695312 -25.160156 L 0.347656 0 L 2.976562 0 L 5.503906 -6.402344 L 15.851562 -6.402344 L 18.378906 0 Z M 21.007812 0 "/></g></g></g><g fill="#ffffff" fill-opacity="1"><g transform="translate(244.653414, 60.383152)"><g><path d="M 0.691406 -21.355469 L 6.402344 -21.355469 L 6.402344 -0.0703125 L 8.824219 -0.0703125 L 8.824219 -21.355469 L 14.535156 -21.355469 L 14.535156 -23.601562 L 0.691406 -23.601562 Z M 0.691406 -21.355469 "/></g></g></g><g fill="#ffffff" fill-opacity="1"><g transform="translate(261.645755, 60.383152)"><g><path d="M 5.019531 0 L 5.019531 -23.535156 L 2.59375 -23.535156 L 2.59375 0 Z M 5.019531 0 "/></g></g></g><g fill="#ffffff" fill-opacity="1"><g transform="translate(271.024536, 60.383152)"><g><path d="M 23.328125 -11.835938 C 23.328125 -9.136719 22.359375 -6.851562 20.488281 -4.984375 C 18.585938 -3.082031 16.300781 -2.144531 13.636719 -2.144531 C 10.972656 -2.144531 8.6875 -3.082031 6.816406 -4.984375 C 4.914062 -6.851562 3.980469 -9.136719 3.980469 -11.835938 C 3.980469 -14.464844 4.914062 -16.75 6.816406 -18.652344 C 8.6875 -20.523438 10.972656 -21.492188 13.636719 -21.492188 C 16.300781 -21.492188 18.585938 -20.523438 20.488281 -18.652344 C 22.359375 -16.75 23.328125 -14.464844 23.328125 -11.835938 Z M 25.75 -11.835938 C 25.75 -13.496094 25.402344 -15.054688 24.78125 -16.542969 C 24.15625 -17.996094 23.292969 -19.277344 22.183594 -20.382812 C 21.078125 -21.457031 19.796875 -22.324219 18.34375 -22.945312 C 16.855469 -23.570312 15.296875 -23.914062 13.636719 -23.914062 C 11.976562 -23.914062 10.382812 -23.570312 8.929688 -22.945312 C 7.476562 -22.324219 6.195312 -21.457031 5.085938 -20.382812 C 3.980469 -19.277344 3.113281 -17.996094 2.492188 -16.542969 C 1.867188 -15.054688 1.558594 -13.496094 1.558594 -11.835938 C 1.558594 -10.175781 1.867188 -8.582031 2.492188 -7.128906 C 3.113281 -5.640625 3.980469 -4.359375 5.085938 -3.253906 C 6.195312 -2.144531 7.476562 -1.28125 8.929688 -0.65625 C 10.382812 -0.0351562 11.976562 0.277344 13.636719 0.277344 C 15.296875 0.277344 16.855469 -0.0351562 18.34375 -0.65625 C 19.796875 -1.28125 21.078125 -2.144531 22.183594 -3.253906 C 23.292969 -4.359375 24.15625 -5.640625 24.78125 -7.128906 C 25.402344 -8.582031 25.75 -10.175781 25.75 -11.835938 Z M 25.75 -11.835938 "/></g></g></g><g fill="#ffffff" fill-opacity="1"><g transform="translate(300.094727, 60.383152)"><g><path d="M 5.019531 -17.339844 L 18.238281 1.453125 L 18.238281 -23.535156 L 15.816406 -23.535156 L 15.816406 -6.230469 L 2.59375 -25.023438 L 2.59375 0 L 5.019531 0 Z M 5.019531 -17.339844 "/></g></g></g><g fill="#5ce1e6" fill-opacity="1"><g transform="translate(179.022759, 72.507516)"><g><path d="M 3.757812 -6.476562 C 3.429688 -6.515625 3.277344 -6.515625 2.925781 -6.515625 L 0.945312 -6.515625 L 0.945312 0 L 2.878906 0 C 3.230469 0 3.378906 0 3.710938 -0.0390625 C 5.222656 -0.226562 6.335938 -1.417969 6.335938 -3.332031 C 6.335938 -5.277344 5.269531 -6.289062 3.757812 -6.476562 Z M 3.625 -0.707031 C 3.417969 -0.671875 3.171875 -0.660156 2.832031 -0.660156 L 1.757812 -0.660156 L 1.757812 -5.855469 L 2.878906 -5.855469 C 3.21875 -5.855469 3.464844 -5.84375 3.671875 -5.808594 C 4.777344 -5.628906 5.449219 -4.777344 5.449219 -3.332031 C 5.449219 -1.792969 4.730469 -0.886719 3.625 -0.707031 Z M 3.625 -0.707031 "/></g></g></g><g fill="#5ce1e6" fill-opacity="1"><g transform="translate(187.744691, 72.507516)"><g><path d="M 1.757812 0 L 1.757812 -6.515625 L 0.945312 -6.515625 L 0.945312 0 Z M 1.757812 0 "/></g></g></g><g fill="#5ce1e6" fill-opacity="1"><g transform="translate(192.266944, 72.507516)"><g><path d="M 3.644531 0 L 5.988281 -6.515625 L 5.117188 -6.515625 L 3.117188 -0.613281 L 1.179688 -6.515625 L 0.300781 -6.515625 L 2.550781 0 Z M 3.644531 0 "/></g></g></g><g fill="#5ce1e6" fill-opacity="1"><g transform="translate(200.167815, 72.507516)"><g><path d="M 5.277344 -0.660156 L 1.757812 -0.660156 L 1.757812 -2.925781 L 4.902344 -2.925781 L 4.902344 -3.589844 L 1.757812 -3.589844 L 1.757812 -5.855469 L 5.183594 -5.855469 L 5.183594 -6.515625 L 0.945312 -6.515625 L 0.945312 0 L 5.277344 0 Z M 5.277344 -0.660156 "/></g></g></g><g fill="#5ce1e6" fill-opacity="1"><g transform="translate(207.738375, 72.507516)"><g><path d="M 5.230469 -1.710938 C 5.175781 -2.359375 4.921875 -2.957031 4.390625 -3.203125 C 4.996094 -3.390625 5.554688 -3.882812 5.554688 -4.742188 C 5.554688 -5.835938 4.871094 -6.355469 3.929688 -6.476562 C 3.636719 -6.515625 3.410156 -6.515625 3.078125 -6.515625 L 0.945312 -6.515625 L 0.945312 0 L 1.757812 0 L 1.757812 -2.804688 L 2.984375 -2.804688 C 3.136719 -2.804688 3.296875 -2.804688 3.445312 -2.796875 C 4.089844 -2.75 4.34375 -2.304688 4.417969 -1.632812 C 4.503906 -0.832031 4.589844 -0.414062 4.769531 0 L 5.667969 0 C 5.402344 -0.347656 5.308594 -0.859375 5.230469 -1.710938 Z M 1.757812 -3.464844 L 1.757812 -5.855469 L 3.078125 -5.855469 C 3.371094 -5.855469 3.550781 -5.84375 3.730469 -5.816406 C 4.335938 -5.722656 4.683594 -5.390625 4.683594 -4.664062 C 4.683594 -3.929688 4.238281 -3.542969 3.636719 -3.484375 C 3.457031 -3.464844 3.296875 -3.464844 3.003906 -3.464844 Z M 1.757812 -3.464844 "/></g></g></g><g fill="#5ce1e6" fill-opacity="1"><g transform="translate(215.61093, 72.507516)"><g><path d="M 2.964844 -6.648438 C 1.765625 -6.648438 0.792969 -5.941406 0.792969 -4.816406 C 0.792969 -3.738281 1.597656 -3.277344 2.75 -3.011719 C 3.890625 -2.75 4.34375 -2.390625 4.34375 -1.597656 C 4.34375 -0.917969 3.738281 -0.511719 2.992188 -0.511719 C 2.144531 -0.511719 1.546875 -0.992188 1.359375 -1.851562 L 0.492188 -1.851562 C 0.632812 -0.59375 1.539062 0.132812 2.976562 0.132812 C 4.230469 0.132812 5.210938 -0.605469 5.210938 -1.746094 C 5.210938 -2.851562 4.496094 -3.4375 3.058594 -3.769531 C 2.066406 -3.996094 1.660156 -4.296875 1.660156 -5.003906 C 1.660156 -5.683594 2.210938 -6.007812 2.898438 -6.007812 C 3.722656 -6.007812 4.203125 -5.535156 4.277344 -4.710938 L 5.148438 -4.710938 C 5.023438 -5.828125 4.316406 -6.648438 2.964844 -6.648438 Z M 2.964844 -6.648438 "/></g></g></g><g fill="#5ce1e6" fill-opacity="1"><g transform="translate(223.162614, 72.507516)"><g><path d="M 5.277344 -0.660156 L 1.757812 -0.660156 L 1.757812 -2.925781 L 4.902344 -2.925781 L 4.902344 -3.589844 L 1.757812 -3.589844 L 1.757812 -5.855469 L 5.183594 -5.855469 L 5.183594 -6.515625 L 0.945312 -6.515625 L 0.945312 0 L 5.277344 0 Z M 5.277344 -0.660156 "/></g></g></g><g fill="#5ce1e6" fill-opacity="1"><g transform="translate(230.733172, 72.507516)"><g/></g></g><g fill="#5ce1e6" fill-opacity="1"><g transform="translate(234.802423, 72.507516)"><g><path d="M 1.757812 0 L 1.757812 -6.515625 L 0.945312 -6.515625 L 0.945312 0 Z M 1.757812 0 "/></g></g></g><g fill="#5ce1e6" fill-opacity="1"><g transform="translate(239.324675, 72.507516)"><g><path d="M 5.78125 -5.855469 L 5.78125 -6.515625 L 0.320312 -6.515625 L 0.320312 -5.855469 L 2.644531 -5.855469 L 2.644531 0 L 3.457031 0 L 3.457031 -5.855469 Z M 5.78125 -5.855469 "/></g></g></g><g fill="#5ce1e6" fill-opacity="1"><g transform="translate(247.131171, 72.507516)"><g/></g></g><g fill="#5ce1e6" fill-opacity="1"><g transform="translate(251.200422, 72.507516)"><g><path d="M 2.964844 -6.648438 C 1.765625 -6.648438 0.792969 -5.941406 0.792969 -4.816406 C 0.792969 -3.738281 1.597656 -3.277344 2.75 -3.011719 C 3.890625 -2.75 4.34375 -2.390625 4.34375 -1.597656 C 4.34375 -0.917969 3.738281 -0.511719 2.992188 -0.511719 C 2.144531 -0.511719 1.546875 -0.992188 1.359375 -1.851562 L 0.492188 -1.851562 C 0.632812 -0.59375 1.539062 0.132812 2.976562 0.132812 C 4.230469 0.132812 5.210938 -0.605469 5.210938 -1.746094 C 5.210938 -2.851562 4.496094 -3.4375 3.058594 -3.769531 C 2.066406 -3.996094 1.660156 -4.296875 1.660156 -5.003906 C 1.660156 -5.683594 2.210938 -6.007812 2.898438 -6.007812 C 3.722656 -6.007812 4.203125 -5.535156 4.277344 -4.710938 L 5.148438 -4.710938 C 5.023438 -5.828125 4.316406 -6.648438 2.964844 -6.648438 Z M 2.964844 -6.648438 "/></g></g></g><g fill="#5ce1e6" fill-opacity="1"><g transform="translate(258.752105, 72.507516)"><g><path d="M 3.523438 -6.648438 C 1.539062 -6.648438 0.445312 -5.25 0.445312 -3.257812 C 0.445312 -1.273438 1.539062 0.132812 3.523438 0.132812 C 5.503906 0.132812 6.601562 -1.273438 6.601562 -3.257812 C 6.601562 -5.25 5.503906 -6.648438 3.523438 -6.648438 Z M 3.523438 -0.511719 C 2.152344 -0.511719 1.351562 -1.566406 1.351562 -3.257812 C 1.351562 -4.957031 2.152344 -6.007812 3.523438 -6.007812 C 4.890625 -6.007812 5.695312 -4.957031 5.695312 -3.257812 C 5.695312 -1.566406 4.890625 -0.511719 3.523438 -0.511719 Z M 3.523438 -0.511719 "/></g></g></g><g fill="#5ce1e6" fill-opacity="1"><g transform="translate(267.738285, 72.507516)"><g><path d="M 5.277344 -0.660156 L 1.757812 -0.660156 L 1.757812 -6.515625 L 0.945312 -6.515625 L 0.945312 0 L 5.277344 0 Z M 5.277344 -0.660156 "/></g></g></g><g fill="#5ce1e6" fill-opacity="1"><g transform="translate(275.195591, 72.507516)"><g><path d="M 5.78125 -6.515625 L 4.96875 -6.515625 L 4.96875 -2.484375 C 4.96875 -2.277344 4.96875 -2.078125 4.949219 -1.90625 C 4.871094 -1.085938 4.335938 -0.511719 3.332031 -0.511719 C 2.332031 -0.511719 1.792969 -1.085938 1.71875 -1.90625 C 1.699219 -2.078125 1.699219 -2.277344 1.699219 -2.484375 L 1.699219 -6.515625 L 0.886719 -6.515625 L 0.886719 -2.40625 C 0.886719 -2.199219 0.886719 -2.011719 0.90625 -1.824219 C 1 -0.738281 1.738281 0.132812 3.332031 0.132812 C 4.929688 0.132812 5.667969 -0.738281 5.761719 -1.824219 C 5.78125 -2.011719 5.78125 -2.199219 5.78125 -2.40625 Z M 5.78125 -6.515625 "/></g></g></g><g fill="#5ce1e6" fill-opacity="1"><g transform="translate(283.662714, 72.507516)"><g><path d="M 5.78125 -5.855469 L 5.78125 -6.515625 L 0.320312 -6.515625 L 0.320312 -5.855469 L 2.644531 -5.855469 L 2.644531 0 L 3.457031 0 L 3.457031 -5.855469 Z M 5.78125 -5.855469 "/></g></g></g><g fill="#5ce1e6" fill-opacity="1"><g transform="translate(291.469214, 72.507516)"><g><path d="M 1.757812 0 L 1.757812 -6.515625 L 0.945312 -6.515625 L 0.945312 0 Z M 1.757812 0 "/></g></g></g><g fill="#5ce1e6" fill-opacity="1"><g transform="translate(295.99147, 72.507516)"><g><path d="M 3.523438 -6.648438 C 1.539062 -6.648438 0.445312 -5.25 0.445312 -3.257812 C 0.445312 -1.273438 1.539062 0.132812 3.523438 0.132812 C 5.503906 0.132812 6.601562 -1.273438 6.601562 -3.257812 C 6.601562 -5.25 5.503906 -6.648438 3.523438 -6.648438 Z M 3.523438 -0.511719 C 2.152344 -0.511719 1.351562 -1.566406 1.351562 -3.257812 C 1.351562 -4.957031 2.152344 -6.007812 3.523438 -6.007812 C 4.890625 -6.007812 5.695312 -4.957031 5.695312 -3.257812 C 5.695312 -1.566406 4.890625 -0.511719 3.523438 -0.511719 Z M 3.523438 -0.511719 "/></g></g></g><g fill="#5ce1e6" fill-opacity="1"><g transform="translate(304.97765, 72.507516)"><g><path d="M 6.042969 0 L 6.023438 -6.515625 L 5.230469 -6.515625 L 5.230469 -3.257812 C 5.230469 -2.492188 5.242188 -1.558594 5.261719 -0.792969 L 2.191406 -6.515625 L 0.945312 -6.515625 L 0.945312 0 L 1.757812 0 L 1.757812 -3.257812 C 1.757812 -4.023438 1.746094 -4.957031 1.726562 -5.722656 L 4.796875 0 Z M 6.042969 0 "/></g></g></g><g fill="#5ce1e6" fill-opacity="1"><g transform="translate(313.784516, 72.507516)"><g><path d="M 2.964844 -6.648438 C 1.765625 -6.648438 0.792969 -5.941406 0.792969 -4.816406 C 0.792969 -3.738281 1.597656 -3.277344 2.75 -3.011719 C 3.890625 -2.75 4.34375 -2.390625 4.34375 -1.597656 C 4.34375 -0.917969 3.738281 -0.511719 2.992188 -0.511719 C 2.144531 -0.511719 1.546875 -0.992188 1.359375 -1.851562 L 0.492188 -1.851562 C 0.632812 -0.59375 1.539062 0.132812 2.976562 0.132812 C 4.230469 0.132812 5.210938 -0.605469 5.210938 -1.746094 C 5.210938 -2.851562 4.496094 -3.4375 3.058594 -3.769531 C 2.066406 -3.996094 1.660156 -4.296875 1.660156 -5.003906 C 1.660156 -5.683594 2.210938 -6.007812 2.898438 -6.007812 C 3.722656 -6.007812 4.203125 -5.535156 4.277344 -4.710938 L 5.148438 -4.710938 C 5.023438 -5.828125 4.316406 -6.648438 2.964844 -6.648438 Z M 2.964844 -6.648438 "/></g></g></g></svg>